<?xml version="1.0" encoding="utf-8"?>
<!-- Generator: Adobe Illustrator 22.0.1, SVG Export Plug-In . SVG Version: 6.00 Build 0)  -->
<svg version="1.1" id="Layer_1" xmlns="http://www.w3.org/2000/svg" xmlns:xlink="http://www.w3.org/1999/xlink" x="0px" y="0px"
	 viewBox="0 0 384 512" style="enable-background:new 0 0 384 512;" xml:space="preserve">
<style type="text/css">
	.st0{fill:#FFFFFF;}
</style>
<path class="st0" d="M217.5,256l137.2-137.2c4.7-4.7,4.7-12.3,0-17l-8.5-8.5c-4.7-4.7-12.3-4.7-17,0L192,230.5L54.8,93.4
	c-4.7-4.7-12.3-4.7-17,0l-8.5,8.5c-4.7,4.7-4.7,12.3,0,17L166.5,256L29.4,393.2c-4.7,4.7-4.7,12.3,0,17l8.5,8.5
	c4.7,4.7,12.3,4.7,17,0L192,281.5l137.2,137.2c4.7,4.7,12.3,4.7,17,0l8.5-8.5c4.7-4.7,4.7-12.3,0-17L217.5,256z"/>
</svg>
