<?xml version="1.0" encoding="utf-8"?>
<!-- Generator: Adobe Illustrator 22.0.1, SVG Export Plug-In . SVG Version: 6.00 Build 0)  -->
<svg version="1.1" id="Layer_1" xmlns="http://www.w3.org/2000/svg" xmlns:xlink="http://www.w3.org/1999/xlink" x="0px" y="0px"
	 viewBox="0 0 384 512" style="enable-background:new 0 0 384 512;" xml:space="preserve">
<style type="text/css">
	.st0{fill:#0F62F4;}
</style>
<path class="st0" d="M348.5,232.1l-148,148.4c-4.7,4.7-12.3,4.7-17,0l-148-148.4c-4.7-4.7-4.7-12.3,0-17l19.6-19.6
	c4.8-4.8,12.5-4.7,17.1,0.2l93.7,97.1V44c0-6.6,5.4-12,12-12h28c6.6,0,12,5.4,12,12v248.8l93.7-97.1c4.7-4.8,12.4-4.9,17.1-0.2
	l19.6,19.6C353.2,219.8,353.2,227.4,348.5,232.1L348.5,232.1z M372,428H12c-6.6,0-12,5.4-12,12v28c0,6.6,5.4,12,12,12h360
	c6.6,0,12-5.4,12-12v-28C384,433.4,378.6,428,372,428z"/>
</svg>
