<?xml version="1.0" encoding="utf-8"?>
<!-- Generator: Adobe Illustrator 22.0.1, SVG Export Plug-In . SVG Version: 6.00 Build 0)  -->
<svg version="1.1" id="Layer_1" xmlns="http://www.w3.org/2000/svg" xmlns:xlink="http://www.w3.org/1999/xlink" x="0px" y="0px"
	 viewBox="0 0 512 384" style="enable-background:new 0 0 512 384;" xml:space="preserve">
<style type="text/css">
	.st0{fill:#FFFFFF;}
</style>
<path class="st0" d="M464,0H48C21.5,0,0,21.5,0,48v288c0,26.5,21.5,48,48,48h416c26.5,0,48-21.5,48-48V48C512,21.5,490.5,0,464,0z
	 M480,336c0,8.8-7.2,16-16,16H48c-8.8,0-16-7.2-16-16V48c0-8.8,7.2-16,16-16h416c8.8,0,16,7.2,16,16V336z M112,168
	c30.9,0,56-25.1,56-56s-25.1-56-56-56s-56,25.1-56,56S81.1,168,112,168z M112,88c13.2,0,24,10.8,24,24s-10.8,24-24,24
	s-24-10.8-24-24S98.8,88,112,88z M319,111l-95,95l-31-31c-9.4-9.4-24.6-9.4-33.9,0l-88,88c-4.5,4.5-7,10.6-7,17v28
	c0,6.6,5.4,12,12,12h360c6.6,0,12-5.4,12-12v-92c0-6.4-2.5-12.5-7-17l-88-88C343.6,101.7,328.4,101.7,319,111z M416,288H96v-4.7
	l80-80l48,48l112-112l80,80V288z"/>
</svg>
